<svg fill="#fffff" height="200px" width="200px" version="1.1" id="Capa_1" xmlns="http://www.w3.org/2000/svg" xmlns:xlink="http://www.w3.org/1999/xlink" viewBox="-29.48 -29.48 353.80 353.80" xml:space="preserve">
<g id="SVGRepo_bgCarrier" stroke-width="0">
<path 
    transform="translate(-29.48, -29.48), scale(11.05625)" d="M16,29.855952732264996C18.01277648127581,30.442889035603304,20.13477995180951,29.401138886812458,22.093365483632553,28.653003803898336C24.155433048155874,27.865340940421945,26.237753136768756,26.97861777078944,27.7478022987562,25.368559711109604C29.30001049241755,23.713550473386313,30.19530539726163,21.565251511425878,30.793615177765936,19.376546126964154C31.405630658681194,17.137703269800603,32.621082114509825,14.39750772351445,31.26099657142318,12.516777119882208C29.693389690935817,10.349085352564272,25.684717732024364,11.684192048544078,23.833919868240315,9.752657374441203C22.231173039789134,8.079994392956865,24.014978970199117,4.547776051858385,22.220849030189484,3.0822738839652697C20.59296161227573,1.7525638742066,18.10184183165219,3.3738394499960567,16,3.3536634699386703C13.876537815401838,3.3332799519955567,11.470096328120825,1.757523087894393,9.721369293767914,2.9622889973329904C7.876030218507357,4.233614690568772,8.893275415870487,7.46639029828174,7.49203928695877,9.215127737692653C6.085980741484126,10.969883534907808,3.0320913953739463,10.853528645962887,1.8604139928362873,12.772731763286604C0.6984991822835638,14.675943792167317,0.17357041878804846,17.431382923382632,1.3017630068534451,19.354776678725596C2.5246085924776387,21.439539145718463,5.5945862328498235,21.392580577013373,7.656323307536715,22.65386012767782C9.01861441976169,23.48724957534162,10.198367309659453,24.493376413950962,11.407278640483256,25.536884171531305C13.018311920943757,26.927495445507084,13.956895950359067,29.260172749049136,16,29.855952732264996" 
    fill="yellow" 
    strokewidth="0">
</path>
</g>
<g id="SVGRepo_tracerCarrier" stroke-linecap="round" stroke-linejoin="round"></g><g id="SVGRepo_iconCarrier"> <g> <path d="M199.628,175.487c-0.632-1.977,0.067-4.131,1.741-5.358l37.422-27.455c5.958-4.371,8.333-11.736,6.049-18.763 c-2.283-7.028-8.533-11.591-15.922-11.625l-46.413-0.215c-2.076-0.01-3.908-1.34-4.558-3.311l-14.547-44.076 c-2.316-7.017-8.586-11.55-15.975-11.551h0c-7.389,0-13.66,4.534-15.976,11.55l-6.557,19.859c-1.039,3.146,0.669,6.54,3.816,7.578 c3.147,1.041,6.539-0.669,7.579-3.816l6.557-19.859c1.014-3.073,3.762-3.312,4.581-3.312c0.818,0,3.566,0.239,4.58,3.312 l14.547,44.077c2.27,6.875,8.658,11.516,15.897,11.55l46.413,0.215c3.236,0.015,4.313,2.555,4.565,3.333 c0.253,0.778,0.875,3.465-1.734,5.379l-37.423,27.455c-5.837,4.283-8.277,11.793-6.072,18.689l14.143,44.222 c0.986,3.083-1.097,4.892-1.759,5.372c-0.662,0.481-3.025,1.904-5.652,0.013l-37.677-27.114c-5.878-4.229-13.776-4.229-19.654,0 l-37.684,27.119c-2.627,1.89-4.991,0.468-5.652-0.012c-0.662-0.481-2.745-2.289-1.76-5.371l14.139-44.229 c2.205-6.895-0.236-14.405-6.072-18.688l-37.421-27.455c-2.609-1.914-1.987-4.602-1.734-5.379c0.253-0.778,1.33-3.318,4.565-3.333 l46.416-0.215c3.313-0.016,5.987-2.714,5.972-6.028c-0.016-3.304-2.699-5.972-6-5.972c-0.009,0-0.019,0-0.028,0l-46.416,0.215 c-7.389,0.034-13.639,4.597-15.922,11.625c-2.283,7.028,0.091,14.393,6.048,18.764l37.421,27.455 c1.673,1.228,2.373,3.381,1.741,5.358l-14.138,44.229c-2.25,7.038,0.159,14.392,6.137,18.734c3,2.179,6.442,3.269,9.886,3.269 c3.419,0,6.84-1.075,9.829-3.225l37.683-27.119c1.685-1.213,3.95-1.213,5.635,0l37.677,27.114c5.998,4.316,13.736,4.3,19.715-0.044 c5.979-4.343,8.387-11.697,6.136-18.736L199.628,175.487z"></path> <path d="M147.421,0C66.133,0,0,66.133,0,147.421s66.133,147.421,147.421,147.421c3.313,0,6-2.687,6-6s-2.687-6-6-6 C72.75,282.843,12,222.093,12,147.421S72.75,12,147.421,12s135.421,60.75,135.421,135.421c0,46.48-23.42,89.182-62.65,114.228 c-2.793,1.783-3.612,5.493-1.829,8.286c1.783,2.793,5.492,3.612,8.286,1.829c42.7-27.262,68.193-73.745,68.193-124.342 C294.843,66.133,228.71,0,147.421,0z"></path> </g> </g></svg>