<?xml version="1.0" ?><svg id="Layer_1" style="enable-background:new 0 0 62 62;" version="1.1" viewBox="0 0 62 62" xml:space="preserve" xmlns="http://www.w3.org/2000/svg" xmlns:xlink="http://www.w3.org/1999/xlink"><style type="text/css">
	.st0{fill:#5FD2FF;}
	.st1{fill:#FFFFFF;}
	.st2{fill:#0082ED;}
	.st3{fill:#2BA8FC;}
	.st4{fill:#CECECE;}
	.st5{fill:#F92B75;}
	.st6{fill:#3BB0FF;}
	.st7{fill:#CE004F;}
	.st8{fill:none;stroke:#ED0C68;stroke-width:5;stroke-linecap:round;stroke-linejoin:round;stroke-miterlimit:10;}
	.st9{fill:#ED0C68;}
	.st10{fill:#78DED4;}
	.st11{fill:#1E5363;}
	.st12{fill:#54C8E8;}
	.st13{fill:#F4F4F4;}
	.st14{fill:#0C82EB;}
	.st15{fill:#00B2E3;}
	.st16{fill:#68A2B9;}
	.st17{fill:#A2C5D3;}
	.st18{fill:#76777A;}
	.st19{fill:#A7A8A9;}
	.st20{fill:#D6D6D6;}
	.st21{fill:none;stroke:#F92B75;stroke-width:5;stroke-linecap:round;stroke-linejoin:round;stroke-miterlimit:10;}
	.st22{fill:#FD4A5C;}
	.st23{fill:#FF8E9F;}
	.st24{fill:none;stroke:#F458A3;stroke-width:5;stroke-linecap:round;stroke-linejoin:round;stroke-miterlimit:10;}
	.st25{fill:#FFB259;}
	.st26{fill:#F32735;}
	.st27{fill:#FF9E18;}
	.st28{fill:#FFC27A;}
	.st29{fill:#FFC56D;}
	.st30{fill:none;stroke:#FD4A5C;stroke-width:5;stroke-linecap:round;stroke-linejoin:round;stroke-miterlimit:10;}
	.st31{fill:#0069A7;}
	.st32{fill:#D8D8D8;}
	.st33{fill:#8CB7C9;}
	.st34{fill:#65BAAF;}
	.st35{fill:#00AF9A;}
	.st36{fill:#00C4B3;}
	.st37{fill:#19D3C5;}
	.st38{fill:none;stroke:#54C8E8;stroke-width:5;stroke-linecap:round;stroke-linejoin:round;stroke-miterlimit:10;}
	.st39{fill:#8331A7;}
	.st40{fill:#009383;}
	.st41{fill:#98989A;}
	.st42{fill:#636569;}
	.st43{fill:#898A8D;}
	.st44{fill:#FFB548;}
	.st45{fill:none;stroke:#FFB548;stroke-width:5;stroke-linecap:round;stroke-linejoin:round;stroke-miterlimit:10;}
	.st46{fill:#ED40A9;}
	.st47{fill:#CB007B;}
	.st48{fill:#E50695;}
	.st49{fill:#D7282F;}
	.st50{fill:#E5E5E5;}
	.st51{fill:#FFA4B4;}
	.st52{fill:#F6A7D7;}
	.st53{fill:#F478C4;}
	.st54{fill:#E0C7E6;}
	.st55{fill:#B980D0;}
	.st56{fill:#D9B7E2;}
	.st57{fill:#BADF93;}
	.st58{fill:#4C9C2E;}
	.st59{fill:#3DAE2B;}
	.st60{fill:#AADA91;}
	.st61{fill:#6ABF4B;}
	.st62{fill:#EFB8A9;}
	.st63{fill:#FECB8B;}
	.st64{fill:#BDE8EF;}
	.st65{fill:#CCA1DD;}
	.st66{fill:#B2B2B2;}
	.st67{fill:none;stroke:#FF8300;stroke-width:5;stroke-linecap:round;stroke-linejoin:round;stroke-miterlimit:10;}
	.st68{fill:none;stroke:#FF9E18;stroke-width:5;stroke-linecap:round;stroke-linejoin:round;stroke-miterlimit:10;}
	.st69{fill:#96DAEA;}
	.st70{fill:#FF8300;}
	.st71{fill:none;stroke:#6ABF4B;stroke-width:5;stroke-linecap:round;stroke-linejoin:round;stroke-miterlimit:10;}
	.st72{fill:none;}
	.st73{fill:#444444;}
	.st74{fill:#FDCF85;}
</style><g><circle class="st29" cx="47.39" cy="21.23" r="12.11"/><path class="st29" d="M47.39,9.12c6.69,0,12.11,5.42,12.11,12.11s-5.42,12.11-12.11,12.11s-12.11-5.42-12.11-12.11   S40.71,9.12,47.39,9.12"/><path class="st27" d="M47.39,35.84c-8.05,0-14.61-6.55-14.61-14.61S39.34,6.62,47.39,6.62S62,13.17,62,21.23   S55.45,35.84,47.39,35.84z M47.39,11.62c-5.3,0-9.61,4.31-9.61,9.61s4.31,9.61,9.61,9.61S57,26.53,57,21.23   S52.69,11.62,47.39,11.62z"/><path class="st22" d="M47.39,35.84c-8.05,0-14.61-6.55-14.61-14.61S39.34,6.62,47.39,6.62c1.38,0,2.5,1.12,2.5,2.5   s-1.12,2.5-2.5,2.5c-5.3,0-9.61,4.31-9.61,9.61s4.31,9.61,9.61,9.61c1.38,0,2.5,1.12,2.5,2.5S48.77,35.84,47.39,35.84z"/><path class="st33" d="M40.81,55.38H14.69C6.59,55.38,0,48.79,0,40.68c0-7.36,5.46-13.49,12.54-14.54   c1.82-6.96,8.18-11.99,15.54-11.99c7.41,0,13.79,5.08,15.57,12.11c6.79,1.33,11.85,7.32,11.85,14.42   C55.51,48.79,48.91,55.38,40.81,55.38z M28.08,19.16c-5.56,0-10.27,4.15-10.98,9.65l-0.28,2.17l-2.19,0.01   C9.32,31.02,5,35.36,5,40.68c0,5.35,4.35,9.69,9.69,9.69h26.12c5.35,0,9.69-4.35,9.69-9.69c0-5.13-4-9.38-9.11-9.68l-2.08-0.12   l-0.26-2.06C38.36,23.31,33.65,19.16,28.08,19.16z"/><path class="st13" d="M53.01,40.68c0,6.73-5.46,12.19-12.19,12.19H14.69c-6.73,0-12.19-5.46-12.19-12.19   c0-6.71,5.43-12.16,12.13-12.19c0.85-6.68,6.55-11.83,13.46-11.83c6.91,0,12.61,5.17,13.46,11.85   C47.93,28.89,53.01,34.2,53.01,40.68z"/><path class="st33" d="M40.81,55.38H14.69C6.59,55.38,0,48.79,0,40.68c0-7.36,5.46-13.49,12.54-14.54   c1.82-6.96,8.18-11.99,15.54-11.99c7.41,0,13.79,5.08,15.57,12.11c6.79,1.33,11.85,7.32,11.85,14.42   C55.51,48.79,48.91,55.38,40.81,55.38z M28.08,19.16c-5.56,0-10.27,4.15-10.98,9.65l-0.28,2.17l-2.19,0.01   C9.32,31.02,5,35.36,5,40.68c0,5.35,4.35,9.69,9.69,9.69h26.12c5.35,0,9.69-4.35,9.69-9.69c0-5.13-4-9.38-9.11-9.68l-2.08-0.12   l-0.26-2.06C38.36,23.31,33.65,19.16,28.08,19.16z"/><path class="st34" d="M14.69,55.38C6.59,55.38,0,48.79,0,40.68c0-7.36,5.46-13.49,12.54-14.54c1.82-6.96,8.18-11.99,15.54-11.99   c1.38,0,2.5,1.12,2.5,2.5s-1.12,2.5-2.5,2.5c-5.56,0-10.27,4.15-10.98,9.65c-0.16,1.24-1.21,2.18-2.47,2.18   C9.32,31.02,5,35.36,5,40.68c0,5.35,4.35,9.69,9.69,9.69c1.38,0,2.5,1.12,2.5,2.5S16.08,55.38,14.69,55.38z"/></g></svg>